<?xml version="1.0" encoding="UTF-8" standalone="no"?>
<svg
   width="50mm"
   height="50mm"
   fill-rule="evenodd"
   clip-rule="evenodd"
   image-rendering="optimizeQuality"
   shape-rendering="geometricPrecision"
   text-rendering="geometricPrecision"
   viewBox="0 0 50 50"
   version="1.1"
   id="svg25"
   sodipodi:docname="bK.svg"
   inkscape:version="1.3.2 (091e20e, 2023-11-25, custom)"
   xmlns:inkscape="http://www.inkscape.org/namespaces/inkscape"
   xmlns:sodipodi="http://sodipodi.sourceforge.net/DTD/sodipodi-0.dtd"
   xmlns:xlink="http://www.w3.org/1999/xlink"
   xmlns="http://www.w3.org/2000/svg"
   xmlns:svg="http://www.w3.org/2000/svg">
  <sodipodi:namedview
     id="namedview25"
     pagecolor="#ffffff"
     bordercolor="#000000"
     borderopacity="0.25"
     inkscape:showpageshadow="2"
     inkscape:pageopacity="0.0"
     inkscape:pagecheckerboard="0"
     inkscape:deskcolor="#d1d1d1"
     inkscape:document-units="mm"
     inkscape:zoom="4.2968333"
     inkscape:cx="94.371824"
     inkscape:cy="94.488189"
     inkscape:window-width="1920"
     inkscape:window-height="1009"
     inkscape:window-x="-8"
     inkscape:window-y="-8"
     inkscape:window-maximized="1"
     inkscape:current-layer="svg25" />
  <defs
     id="defs10">
    <filter
       id="g"
       width="1.205"
       height="1.063"
       x="-.102"
       y="-.031"
       color-interpolation-filters="sRGB">
      <feGaussianBlur
         stdDeviation=".172"
         id="feGaussianBlur1" />
    </filter>
    <filter
       id="e"
       width="1.1695914"
       height="1.0667795"
       x="-0.084795703"
       y="-0.033389737"
       color-interpolation-filters="sRGB">
      <feGaussianBlur
         stdDeviation=".392"
         id="feGaussianBlur2" />
    </filter>
    <filter
       id="h"
       width="1.2044824"
       height="1.0624329"
       x="-0.10224118"
       y="-0.031216464"
       color-interpolation-filters="sRGB">
      <feGaussianBlur
         stdDeviation=".172"
         id="feGaussianBlur3" />
    </filter>
    <filter
       id="i"
       width="1.1166431"
       height="1.0815628"
       x="-0.058321557"
       y="-0.040781385"
       color-interpolation-filters="sRGB">
      <feGaussianBlur
         stdDeviation=".258"
         id="feGaussianBlur4" />
    </filter>
    <filter
       id="j"
       width="1.2529379"
       height="1.1881865"
       x="-0.12646893"
       y="-0.094093225"
       style="color-interpolation-filters:sRGB">
      <feGaussianBlur
         stdDeviation=".508"
         id="feGaussianBlur5" />
    </filter>
    <filter
       id="k"
       width="1.3631742"
       height="1.1537818"
       x="-0.18158709"
       y="-0.076890902"
       style="color-interpolation-filters:sRGB">
      <feGaussianBlur
         stdDeviation=".271"
         id="feGaussianBlur6" />
    </filter>
    <filter
       id="l"
       width="1.2116373"
       height="1.2208"
       x="-0.10581867"
       y="-0.1104"
       style="color-interpolation-filters:sRGB">
      <feGaussianBlur
         stdDeviation=".391"
         id="feGaussianBlur7" />
    </filter>
    <filter
       id="m"
       width="1.4573976"
       height="1.3305013"
       x="-0.22869881"
       y="-0.16525066"
       style="color-interpolation-filters:sRGB">
      <feGaussianBlur
         stdDeviation=".342"
         id="feGaussianBlur8" />
    </filter>
    <filter
       id="n"
       width="1.4539535"
       height="1.3332575"
       x="-0.22697675"
       y="-0.16662873"
       style="color-interpolation-filters:sRGB">
      <feGaussianBlur
         stdDeviation=".305"
         id="feGaussianBlur9" />
    </filter>
    <linearGradient
       id="a"
       x1="9.241"
       x2="40.761"
       y1="27.266"
       y2="27.266"
       gradientTransform="matrix(1.0155 0 0 1.0103 -.389 .482)"
       gradientUnits="userSpaceOnUse">
      <stop
         offset="0"
         stop-color="#635f5e"
         style="stop-color:#737373"
         id="stop9" />
      <stop
         offset="1"
         stop-color="#131111"
         style="stop-color:#303030"
         id="stop10" />
    </linearGradient>
    <linearGradient
       xlink:href="#a"
       id="b"
       x1="-505.97"
       x2="-484.22"
       y1="-408.5"
       y2="-408.5"
       gradientTransform="matrix(1.0113 0 0 1.0008 536.22 433.79)"
       gradientUnits="userSpaceOnUse" />
    <linearGradient
       xlink:href="#a"
       id="c"
       x1="-520.15"
       x2="-490.84"
       y1="-394.44"
       y2="-394.44"
       gradientTransform="matrix(1.0113 0 0 1.0008 536.22 433.79)"
       gradientUnits="userSpaceOnUse" />
    <linearGradient
       xlink:href="#a"
       id="d"
       x1="-526.74"
       x2="-504.98"
       y1="-408.5"
       y2="-408.5"
       gradientTransform="matrix(1.0113 0 0 1.0008 536.22 433.79)"
       gradientUnits="userSpaceOnUse" />
    <linearGradient
       xlink:href="#a"
       id="f"
       x1="-510.08"
       x2="-500.85"
       y1="-412.72"
       y2="-412.72"
       gradientTransform="matrix(1.0113 0 0 1.0008 536.22 433.79)"
       gradientUnits="userSpaceOnUse" />
  </defs>
  <path
     fill="url(#linearGradient2758)"
     d="M29.132 18.792c6.387-5.74 17.544-2.606 16.851 6.813-.679 6.17-7.013 8.347-7.013 8.347s-3.827-2.228-13.94-2.228l-.014-3.993z"
     style="clip-rule:evenodd;fill:url(#b);image-rendering:optimizeQuality;shape-rendering:geometricPrecision;stroke:#000"
     id="path10" />
  <path
     fill="url(#linearGradient2760)"
     d="m37.942 38.831 1.304 5.276S35.468 46.335 25 46.335c-10.468 0-14.247-2.228-14.247-2.228l1.304-5.276-.996-4.878s3.645-2.229 13.94-2.229c10.296 0 13.94 2.228 13.94 2.228z"
     style="clip-rule:evenodd;fill:url(#c);image-rendering:optimizeQuality;shape-rendering:geometricPrecision;stroke:#000"
     id="path11" />
  <path
     fill="none"
     d="M10.754 44.106s3.779-2.228 14.248-2.228 14.248 2.228 14.248 2.228M12.058 38.831s3.394-2.228 12.978-2.228 12.977 2.228 12.977 2.228"
     style="clip-rule:evenodd;fill-rule:evenodd;shape-rendering:geometricPrecision;stroke:#000"
     id="path12" />
  <path
     fill="url(#linearGradient2762)"
     stroke="#000"
     d="M20.9 18.792c-6.387-5.74-17.544-2.606-16.851 6.813.679 6.17 7.013 8.347 7.013 8.347s3.827-2.228 13.94-2.228l.014-3.993z"
     style="clip-rule:evenodd;fill-rule:evenodd;fill:url(#d);image-rendering:optimizeQuality;shape-rendering:geometricPrecision"
     id="path13" />
  <path
     fill="#59917a"
     stroke="#000000"
     stroke-linecap="round"
     stroke-linejoin="round"
     d="m 21.65,9.911 h 6.733 M 25.016,6.33 v 7.98"
     style="clip-rule:evenodd;display:inline;fill-rule:evenodd;shape-rendering:geometricPrecision;fill:#59917a;fill-opacity:1;stroke:#958b30;stroke-opacity:1"
     id="path14" />
  <path
     d="M-494.08-417.53a11.67 11.67 0 0 0-1.732.146c9.088-.224 13.443 11.958 1.394 16.485l-1.272 4.958 1.526 5.482 2.961 1.105-1.489-5.469.987-5.207s6.273-1.781 6.934-7.82c.506-4.624-2.547-9.727-9.309-9.68z"
     filter="url(#filter1644-2)"
     opacity=".25"
     style="clip-rule:evenodd;fill-rule:evenodd;filter:url(#e);mix-blend-mode:normal;opacity:.2;shape-rendering:geometricPrecision"
     transform="matrix(1.0113 0 0 1.0008 536.22 433.79)"
     id="path15" />
  <path
     fill="url(#linearGradient2764)"
     stroke="#000"
     stroke-linejoin="round"
     d="m20.9 18.792 4.13 8.653 4.13-8.653s.702-4.768-4.13-4.768c-4.833 0-4.13 4.768-4.13 4.768z"
     style="clip-rule:evenodd;fill-rule:evenodd;fill:url(#f);shape-rendering:geometricPrecision"
     id="path16" />
  <path
     d="M-505.48-419.2c4.757.97.867 10.52.016 13.186.024.025 3.078-5.404 4.02-8.913.09-4.504-3.867-4.392-4.036-4.273z"
     filter="url(#g)"
     opacity=".25"
     style="clip-rule:evenodd;fill-rule:evenodd;filter:url(#h);mix-blend-mode:normal;opacity:.2;shape-rendering:geometricPrecision"
     transform="matrix(1.0113 0 0 1.0008 536.22 433.79)"
     id="path17" />
  <path
     d="M-505.49-402.26v-.075l.015-3.396s-2.681-6.895-4.052-8.914c-1.333-1.963-3.778-2.93-6.565-2.784 3.972 1.765 8.937 10.029 10.602 15.169z"
     filter="url(#filter1898-0)"
     opacity=".25"
     style="clip-rule:evenodd;fill-rule:evenodd;filter:url(#i);mix-blend-mode:normal;opacity:.2;shape-rendering:geometricPrecision"
     transform="matrix(1.0113 0 0 1.0008 536.22 433.79)"
     id="path18" />
  <path
     d="M6.314 29.527c-1.196-1.647-2.01-3.85-1.445-6.636 1.436-7.074 9.457-6.296 9.457-6.296C2.73 20.063 6.454 29.557 6.314 29.527z"
     style="clip-rule:evenodd;fill-rule:evenodd;fill:#fff;filter:url(#j);image-rendering:optimizeQuality;opacity:.3;shape-rendering:geometricPrecision"
     id="path19" />
  <path
     d="m23.57 23.025-2.114-4.402s-.69-4.12 3.54-4.056c-4.212 1.33-1.426 8.458-1.426 8.458z"
     style="clip-rule:evenodd;fill-rule:evenodd;fill:#fff;filter:url(#k);image-rendering:optimizeQuality;opacity:.25;shape-rendering:geometricPrecision"
     id="path20" />
  <path
     d="m27.026 24.959 2.752-5.929s2.447-2.223 6.116-2.571c-3.947 1.032-6.33 4.875-8.868 8.5z"
     style="clip-rule:evenodd;fill-rule:evenodd;fill:#fff;filter:url(#l);image-rendering:optimizeQuality;opacity:.2;shape-rendering:geometricPrecision"
     id="path21" />
  <path
     d="M25.318 41.924c-10.311 0-14.564 2.183-14.564 2.183s4.253 2.182 14.564 2.182h.021c-15.44-1.99 7.315-3.803 8.284-3.81-2.173-.317-4.917-.554-8.305-.554z"
     opacity=".2"
     style="clip-rule:evenodd;fill-rule:evenodd;opacity:.15;shape-rendering:geometricPrecision"
     id="path22" />
  <path
     d="M25 46.296c-9.241 0-13.744-2.209-13.744-2.209S15.759 41.878 25 41.878s13.744 2.21 13.744 2.21S34.241 46.295 25 46.295z"
     opacity=".2"
     style="clip-rule:evenodd;fill-rule:evenodd;opacity:.2;shape-rendering:geometricPrecision;stroke-width:0"
     id="path23" />
  <path
     fill="#fff"
     d="M12.528 39.169c.85-.45 1.729-.643 2.593-.962-.587.841-.634 2.724-.357 4.062 0 0-.892.125-3.232.905z"
     opacity=".7"
     style="clip-rule:evenodd;fill-rule:evenodd;filter:url(#m);opacity:.1;shape-rendering:geometricPrecision"
     id="path24" />
  <path
     fill="#fff"
     d="M12.464 38.021s.3-.288 2.416-.877c-1.59-1.601-1.4-3.446-1.575-3.516-.566.168-1.111.39-1.65.628z"
     opacity=".9"
     style="clip-rule:evenodd;fill-rule:evenodd;filter:url(#n);opacity:.15;shape-rendering:geometricPrecision"
     id="path25" />
</svg>
